<svg width="1000" height="1000" viewBox="0 0 1000 1000" fill="none" xmlns="http://www.w3.org/2000/svg">
<g clip-path="url(#clip0_36_2)">
<path d="M502.08 -10L74 709.628L352.31 1010L960 827.365L502.08 -10Z" fill="white"/>
<rect x="945" y="563" width="467" height="51" rx="25.5" transform="rotate(-180 945 563)" fill="white"/>
<path d="M373.864 943.587L130.964 682.424L585.107 578.933L902.886 784.698L373.864 943.587Z" fill="black" fill-opacity="0.5" stroke="black"/>
<path d="M130.964 682.425L585.108 578.935L504.141 56.6089L130.964 682.425Z" fill="#434343" fill-opacity="0.5" stroke="black"/>
<path d="M585.153 578.933L504.186 56.0005L902.323 784.698L585.153 578.933Z" fill="#C5C5C5" fill-opacity="0.5" stroke="black"/>
<path d="M373.861 942.978L130.957 682.424L504.138 56L373.861 942.978Z" fill="#7B7B7B" stroke="black"/>
<path d="M878.76 775.039L393.349 920.438L513.023 106.2L878.76 775.039Z" fill="white" stroke="#D5D5D5" stroke-width="32"/>
<rect x="916.642" y="544.234" width="317.778" height="14.6105" rx="7.30524" transform="rotate(-180 916.642 544.234)" fill="#FF0000"/>
<path d="M586.004 560.505C573.067 560.505 562.579 550.018 562.579 537.081C562.579 524.144 573.067 513.656 586.004 513.656C598.941 513.656 609.428 524.144 609.428 537.081C609.428 550.018 598.94 560.505 586.004 560.505ZM586.005 548.793C592.473 548.793 597.717 543.549 597.717 537.081C597.717 530.613 592.473 525.368 586.005 525.368C579.536 525.368 574.292 530.613 574.292 537.081C574.292 543.549 579.537 548.793 586.005 548.793Z" fill="#FF0000"/>
<rect x="682.126" y="519.276" width="73.0525" height="14.6105" rx="7.30525" transform="rotate(164.971 682.126 519.276)" fill="#FF0000"/>
<rect x="490.086" y="555.861" width="73.0525" height="14.6105" rx="7.30525" transform="rotate(-15.0289 490.086 555.861)" fill="#FF0000"/>
<rect x="604.398" y="633.588" width="73.0525" height="14.6105" rx="7.30525" transform="rotate(-105.029 604.398 633.588)" fill="#FF0000"/>
<rect x="567.815" y="441.547" width="73.0525" height="14.6105" rx="7.30525" transform="rotate(74.9711 567.815 441.547)" fill="#FF0000"/>
<rect x="666.938" y="592.53" width="73.0525" height="14.6105" rx="7.30525" transform="rotate(-150.029 666.938 592.53)" fill="#FF0000"/>
<rect x="505.274" y="482.606" width="73.0525" height="14.6105" rx="7.30525" transform="rotate(29.9711 505.274 482.606)" fill="#FF0000"/>
<rect x="531.144" y="618.398" width="73.0525" height="14.6105" rx="7.30525" transform="rotate(-60.0289 531.144 618.398)" fill="#FF0000"/>
<rect x="641.068" y="456.737" width="73.0525" height="14.6105" rx="7.30525" transform="rotate(119.971 641.068 456.737)" fill="#FF0000"/>
</g>
<defs>
<clipPath id="clip0_36_2">
<rect width="1000" height="1000" fill="white"/>
</clipPath>
</defs>
</svg>
